<svg width="75" height="40" viewBox="0 0 75 40" fill="none" xmlns="http://www.w3.org/2000/svg"><g clip-path="url(#clip0_2_100)"><g clip-path="url(#clip1_2_100)"><g clip-path="url(#clip2_2_100)"><path d="M0 3.77793C0 1.34457 2.19484 -0.323068 4.78597 0.0581981L38.5862 4.47321C40.1054 4.69674 41.316 6.33357 41.316 8.11615L41.3155 12.73C38.4676 14.6385 36.6008 17.8329 36.6008 21.4514C36.6008 25.1046 38.4222 28.2711 41.316 30.1731V32.202C41.316 33.9845 40.1054 35.6214 38.5862 35.8449L8.59329 39.942C6.00215 40.3234 3.80731 38.6556 3.80731 36.2222L0 3.77793ZM14.5753 8.01853H10.1174V13.8579H7.28931V17.2318H10.1174V23.7199C9.98671 27.7968 11.588 29.6223 15.2674 29.6565L18.7012 29.6566V26.2826H16.938C14.9415 26.1853 14.5094 25.6014 14.5756 22.9736V17.2315H20.0556L25.1317 29.6564H29.9224L36.9093 13.8577H32.1845L27.6599 24.7256L23.534 13.8579H14.5753V8.01853Z" fill="white"/><path d="M65.6245 13.54C68.5188 13.54 70.4483 14.2537 71.9123 15.8758C73.1102 17.1734 73.7422 19.0876 73.7422 21.2284C73.7422 24.3426 72.4781 26.7757 70.1824 28.1707C68.6851 29.0792 67.3877 29.3387 64.46 29.3387H57.207V7.70068H61.6654V13.54H65.6245ZM61.6654 25.9648H64.9588C67.5873 25.9648 69.1842 24.213 69.1842 21.358C69.1842 18.3735 67.787 16.9137 64.9588 16.9137H61.6654V25.9648Z" fill="white"/><path d="M50.3708 7.70068H54.8292V29.3387H47.1435C44.0164 29.3387 42.5191 28.8846 40.922 27.4896C39.2917 26.0299 38.4602 23.9538 38.4602 21.3257C38.4602 18.6006 39.3584 16.5246 41.255 14.9997C42.4526 14.0267 44.0831 13.54 46.179 13.54H50.371L50.3708 7.70068ZM50.3708 16.9139H47.1435C44.5487 16.9139 42.9848 18.5684 42.9848 21.3257C42.9848 24.213 44.5815 25.9648 47.1435 25.9648H50.3708V16.9139Z" fill="white"/></g></g></g><defs><clipPath id="clip0_2_100"><rect width="74.06" height="40" fill="white"/></clipPath><clipPath id="clip1_2_100"><rect width="74.06" height="40" fill="white"/></clipPath><clipPath id="clip2_2_100"><rect width="74.06" height="39.9924" fill="white" transform="translate(0 0.00390625)"/></clipPath></defs></svg>