<svg width="14" height="13" viewBox="0 0 14 13" fill="none" xmlns="http://www.w3.org/2000/svg"><g clip-path="url(#clip0_2_382)"><path d="M2.766 11.571V10.649C2.766 10.5241 2.72038 10.4161 2.62914 10.3248C2.5379 10.2336 2.42985 10.188 2.305 10.188H1.383C1.25815 10.188 1.1501 10.2336 1.05886 10.3248C0.96762 10.4161 0.922 10.5241 0.922 10.649V11.571C0.922 11.6958 0.96762 11.8039 1.05886 11.8951C1.1501 11.9864 1.25815 12.032 1.383 12.032H2.305C2.42985 12.032 2.5379 11.9864 2.62914 11.8951C2.72038 11.8039 2.766 11.6958 2.766 11.571ZM2.766 8.80498V7.88298C2.766 7.75813 2.72038 7.65008 2.62914 7.55884C2.5379 7.4676 2.42985 7.42198 2.305 7.42198H1.383C1.25815 7.42198 1.1501 7.4676 1.05886 7.55884C0.96762 7.65008 0.922 7.75813 0.922 7.88298V8.80498C0.922 8.92983 0.96762 9.03788 1.05886 9.12912C1.1501 9.22036 1.25815 9.26598 1.383 9.26598H2.305C2.42985 9.26598 2.5379 9.22036 2.62914 9.12912C2.72038 9.03788 2.766 8.92983 2.766 8.80498ZM2.766 6.03898V5.11698C2.766 4.99213 2.72038 4.88408 2.62914 4.79284C2.5379 4.7016 2.42985 4.65598 2.305 4.65598H1.383C1.25815 4.65598 1.1501 4.7016 1.05886 4.79284C0.96762 4.88408 0.922 4.99213 0.922 5.11698V6.03898C0.922 6.16383 0.96762 6.27188 1.05886 6.36312C1.1501 6.45436 1.25815 6.49998 1.383 6.49998H2.305C2.42985 6.49998 2.5379 6.45436 2.62914 6.36312C2.72038 6.27188 2.766 6.16383 2.766 6.03898ZM10.142 11.571V7.88298C10.142 7.75813 10.0964 7.65008 10.0051 7.55884C9.9139 7.4676 9.80585 7.42198 9.681 7.42198H4.149C4.02415 7.42198 3.9161 7.4676 3.82486 7.55884C3.73362 7.65008 3.688 7.75813 3.688 7.88298V11.571C3.688 11.6958 3.73362 11.8039 3.82486 11.8951C3.9161 11.9864 4.02415 12.032 4.149 12.032H9.681C9.80585 12.032 9.9139 11.9864 10.0051 11.8951C10.0964 11.8039 10.142 11.6958 10.142 11.571ZM2.766 3.27298V2.35098C2.766 2.22613 2.72038 2.11808 2.62914 2.02684C2.5379 1.9356 2.42985 1.88998 2.305 1.88998H1.383C1.25815 1.88998 1.1501 1.9356 1.05886 2.02684C0.96762 2.11808 0.922 2.22613 0.922 2.35098V3.27298C0.922 3.39783 0.96762 3.50588 1.05886 3.59712C1.1501 3.68836 1.25815 3.73398 1.383 3.73398H2.305C2.42985 3.73398 2.5379 3.68836 2.62914 3.59712C2.72038 3.50588 2.766 3.39783 2.766 3.27298ZM12.908 11.571V10.649C12.908 10.5241 12.8624 10.4161 12.7711 10.3248C12.6799 10.2336 12.5719 10.188 12.447 10.188H11.525C11.4001 10.188 11.2921 10.2336 11.2009 10.3248C11.1096 10.4161 11.064 10.5241 11.064 10.649V11.571C11.064 11.6958 11.1096 11.8039 11.2009 11.8951C11.2921 11.9864 11.4001 12.032 11.525 12.032H12.447C12.5719 12.032 12.6799 11.9864 12.7711 11.8951C12.8624 11.8039 12.908 11.6958 12.908 11.571ZM10.142 6.03898V2.35098C10.142 2.22613 10.0964 2.11808 10.0051 2.02684C9.9139 1.9356 9.80585 1.88998 9.681 1.88998H4.149C4.02415 1.88998 3.9161 1.9356 3.82486 2.02684C3.73362 2.11808 3.688 2.22613 3.688 2.35098V6.03898C3.688 6.16383 3.73362 6.27188 3.82486 6.36312C3.9161 6.45436 4.02415 6.49998 4.149 6.49998H9.681C9.80585 6.49998 9.9139 6.45436 10.0051 6.36312C10.0964 6.27188 10.142 6.16383 10.142 6.03898ZM12.908 8.80498V7.88298C12.908 7.75813 12.8624 7.65008 12.7711 7.55884C12.6799 7.4676 12.5719 7.42198 12.447 7.42198H11.525C11.4001 7.42198 11.2921 7.4676 11.2009 7.55884C11.1096 7.65008 11.064 7.75813 11.064 7.88298V8.80498C11.064 8.92983 11.1096 9.03788 11.2009 9.12912C11.2921 9.22036 11.4001 9.26598 11.525 9.26598H12.447C12.5719 9.26598 12.6799 9.22036 12.7711 9.12912C12.8624 9.03788 12.908 8.92983 12.908 8.80498ZM12.908 6.03898V5.11698C12.908 4.99213 12.8624 4.88408 12.7711 4.79284C12.6799 4.7016 12.5719 4.65598 12.447 4.65598H11.525C11.4001 4.65598 11.2921 4.7016 11.2009 4.79284C11.1096 4.88408 11.064 4.99213 11.064 5.11698V6.03898C11.064 6.16383 11.1096 6.27188 11.2009 6.36312C11.2921 6.45436 11.4001 6.49998 11.525 6.49998H12.447C12.5719 6.49998 12.6799 6.45436 12.7711 6.36312C12.8624 6.27188 12.908 6.16383 12.908 6.03898ZM12.908 3.27298V2.35098C12.908 2.22613 12.8624 2.11808 12.7711 2.02684C12.6799 1.9356 12.5719 1.88998 12.447 1.88998H11.525C11.4001 1.88998 11.2921 1.9356 11.2009 2.02684C11.1096 2.11808 11.064 2.22613 11.064 2.35098V3.27298C11.064 3.39783 11.1096 3.50588 11.2009 3.59712C11.2921 3.68836 11.4001 3.73398 11.525 3.73398H12.447C12.5719 3.73398 12.6799 3.68836 12.7711 3.59712C12.8624 3.50588 12.908 3.39783 12.908 3.27298ZM13.83 2.12048V11.8015C13.83 12.1184 13.7172 12.3897 13.4915 12.6154C13.2658 12.8411 12.9944 12.954 12.6775 12.954H1.1525C0.835562 12.954 0.564245 12.8411 0.338547 12.6154C0.112849 12.3897 0 12.1184 0 11.8015V2.12048C0 1.80354 0.112849 1.53222 0.338547 1.30653C0.564245 1.08083 0.835562 0.967979 1.1525 0.967979H12.6775C12.9944 0.967979 13.2658 1.08083 13.4915 1.30653C13.7172 1.53222 13.83 1.80354 13.83 2.12048Z" fill="#9F9F9F"/></g><defs><clipPath id="clip0_2_382"><rect width="13.83" height="13" fill="white" transform="matrix(1 0 0 -1 0 13)"/></clipPath></defs></svg>