<svg width="12" height="13" viewBox="0 0 12 13" fill="none" xmlns="http://www.w3.org/2000/svg"><g clip-path="url(#clip0_2_377)"><path d="M11.99 4.70727C11.99 4.81286 11.9276 4.92805 11.8027 5.05284L9.18705 7.60147L9.80673 11.2012C9.81153 11.2348 9.81393 11.2828 9.81393 11.3452C9.81393 11.446 9.78871 11.5312 9.73827 11.6008C9.68783 11.6704 9.61458 11.7052 9.5185 11.7052C9.42723 11.7052 9.33116 11.6764 9.23028 11.6188L5.995 9.91972L2.75972 11.6188C2.65404 11.6764 2.55796 11.7052 2.4715 11.7052C2.37062 11.7052 2.29496 11.6704 2.24452 11.6008C2.19408 11.5312 2.16886 11.446 2.16886 11.3452C2.16886 11.3164 2.17367 11.2684 2.18328 11.2012L2.80295 7.60147L0.180138 5.05284C0.0600461 4.92325 0 4.80806 0 4.70727C0 4.52968 0.134503 4.41929 0.40351 4.37609L4.02069 3.85052L5.64193 0.574743C5.7332 0.377956 5.85089 0.279563 5.995 0.279563C6.13911 0.279563 6.2568 0.377956 6.34807 0.574743L7.96932 3.85052L11.5865 4.37609C11.8555 4.41929 11.99 4.52968 11.99 4.70727Z" fill="#9F9F9F"/></g><defs><clipPath id="clip0_2_377"><rect width="11.99" height="13" fill="white" transform="matrix(1 0 0 -1 0 13)"/></clipPath></defs></svg>