<svg width="10" height="13" viewBox="0 0 10 13" fill="none" xmlns="http://www.w3.org/2000/svg"><g clip-path="url(#clip0_2_385)"><path d="M9.21 10.1232C9.21 10.6466 9.0601 11.0956 8.76029 11.4701C8.46049 11.8447 8.09952 12.032 7.6774 12.032H1.5326C1.11048 12.032 0.749512 11.8447 0.449707 11.4701C0.149902 11.0956 0 10.6466 0 10.1232C0 9.71498 0.0203867 9.32961 0.0611602 8.96705C0.101934 8.6045 0.177484 8.23954 0.287813 7.87218C0.398141 7.50482 0.538449 7.19028 0.708738 6.92857C0.879027 6.66685 1.10448 6.45316 1.3851 6.28749C1.66571 6.12182 1.9883 6.03898 2.35287 6.03898C2.98126 6.65365 3.73197 6.96098 4.605 6.96098C5.47803 6.96098 6.22874 6.65365 6.85713 6.03898C7.2217 6.03898 7.54429 6.12182 7.8249 6.28749C8.10552 6.45316 8.33097 6.66685 8.50126 6.92857C8.67155 7.19028 8.81186 7.50482 8.92219 7.87218C9.03252 8.23954 9.10807 8.6045 9.14884 8.96705C9.18961 9.32961 9.21 9.71498 9.21 10.1232ZM6.55853 1.77833C6.55853 1.77833 6.69344 1.91339 6.96326 2.18351C7.23309 2.45363 7.368 2.97045 7.368 3.73398C7.368 4.49751 7.09818 5.1494 6.55853 5.68963C6.01888 6.22987 5.3677 6.49998 4.605 6.49998C3.8423 6.49998 3.19112 6.22987 2.65147 5.68963C2.11182 5.1494 1.842 4.49751 1.842 3.73398C1.842 2.97045 2.11182 2.31857 2.65147 1.77833C3.19112 1.2381 3.8423 0.967982 4.605 0.967982C5.3677 0.967982 6.01888 1.2381 6.55853 1.77833Z" fill="#9F9F9F"/></g><defs><clipPath id="clip0_2_385"><rect width="9.21" height="13" fill="white" transform="matrix(1 0 0 -1 0 13)"/></clipPath></defs></svg>