<svg width="40" height="40" viewBox="0 0 40 40" fill="none" xmlns="http://www.w3.org/2000/svg"><g clip-path="url(#clip0_1_3117)"><path d="M34.8338 11.3951C34.8338 11.3951 35.217 12.0517 35.9833 13.3649C36.7497 14.6782 37.1329 16.8898 37.1329 20C37.1329 23.1101 36.3665 25.9784 34.8338 28.6049C33.301 31.2314 31.2214 33.311 28.5949 34.8437C25.9684 36.3765 23.1001 37.1428 19.99 37.1428C16.8799 37.1428 14.0116 36.3765 11.3851 34.8437C8.75863 33.311 6.67901 31.2314 5.14628 28.6049C3.61354 25.9784 2.84717 23.1101 2.84717 20C2.84717 16.8898 3.61354 14.0215 5.14628 11.3951C6.67901 8.76857 8.75863 6.68896 11.3851 5.15622C14.0116 3.62348 16.8799 2.85711 19.99 2.85711C23.1001 2.85711 25.9684 3.62348 28.5949 5.15622C31.2214 6.68896 33.301 8.76857 34.8338 11.3951Z" fill="white"/></g><g clip-path="url(#clip1_1_3117)"><path d="M28.7846 14.5535C28.2861 15.2827 27.6834 15.904 26.9766 16.4174C26.984 16.5215 26.9877 16.6778 26.9877 16.8861C26.9877 17.8534 26.8464 18.8188 26.5636 19.7823C26.2809 20.7459 25.8512 21.6704 25.2746 22.5558C24.6979 23.4412 24.0115 24.2243 23.2154 24.9051C22.4193 25.5859 21.4594 26.1291 20.3359 26.5346C19.2124 26.9401 18.0108 27.1428 16.731 27.1428C14.7147 27.1428 12.8694 26.6034 11.1953 25.5245C11.4557 25.5543 11.7459 25.5692 12.0658 25.5692C13.74 25.5692 15.2318 25.0558 16.5413 24.029C15.76 24.0141 15.0606 23.7741 14.4431 23.3091C13.8255 22.8441 13.4014 22.2507 13.1708 21.529C13.4163 21.5662 13.6432 21.5848 13.8516 21.5848C14.1715 21.5848 14.4877 21.5439 14.8002 21.462C13.9669 21.2909 13.2768 20.8761 12.7299 20.2176C12.183 19.5591 11.9096 18.7946 11.9096 17.9241V17.8794C12.4156 18.1622 12.9587 18.3147 13.5391 18.337C13.048 18.0096 12.6574 17.5818 12.3672 17.0535C12.077 16.5253 11.9319 15.9523 11.9319 15.3348C11.9319 14.68 12.0956 14.0736 12.423 13.5156C13.3233 14.6242 14.4189 15.5115 15.7098 16.1774C17.0007 16.8433 18.3828 17.2135 19.856 17.2879C19.7965 17.0052 19.7667 16.7299 19.7667 16.462C19.7667 15.465 20.1183 14.6149 20.8214 13.9118C21.5246 13.2087 22.3746 12.8571 23.3717 12.8571C24.4133 12.8571 25.2913 13.2366 26.0056 13.9955C26.8166 13.8393 27.5792 13.5491 28.2935 13.125C28.0182 13.9806 27.49 14.6428 26.7087 15.1116C27.4007 15.0372 28.0926 14.8512 28.7846 14.5535Z" fill="black"/></g><defs><clipPath id="clip0_1_3117"><rect width="34.3" height="40" fill="white" transform="matrix(1 0 0 -1 2.83984 40)"/></clipPath><clipPath id="clip1_1_3117"><rect width="18.58" height="20" fill="white" transform="matrix(1 0 0 -1 10.7002 30)"/></clipPath></defs></svg>