<svg width="44" height="40" viewBox="0 0 44 40" fill="none" xmlns="http://www.w3.org/2000/svg"><g clip-path="url(#clip0_1_3107)"><path d="M34.8338 11.3951C34.8338 11.3951 35.217 12.0517 35.9833 13.3649C36.7497 14.6782 37.1329 16.8898 37.1329 20C37.1329 23.1101 36.3665 25.9784 34.8338 28.6049C33.301 31.2314 31.2214 33.311 28.5949 34.8437C25.9684 36.3765 23.1001 37.1428 19.99 37.1428C16.8799 37.1428 14.0116 36.3765 11.3851 34.8437C8.75863 33.311 6.67901 31.2314 5.14628 28.6049C3.61354 25.9784 2.84717 23.1101 2.84717 20C2.84717 16.8898 3.61354 14.0215 5.14628 11.3951C6.67901 8.76857 8.75863 6.68896 11.3851 5.15622C14.0116 3.62348 16.8799 2.85711 19.99 2.85711C23.1001 2.85711 25.9684 3.62348 28.5949 5.15622C31.2214 6.68896 33.301 8.76857 34.8338 11.3951Z" fill="white"/></g><g clip-path="url(#clip1_1_3107)"><path d="M24.9886 10.134V13.0805H23.2363C22.5964 13.0805 22.1649 13.2144 21.9417 13.4822C21.7185 13.7501 21.6069 14.1519 21.6069 14.6876V16.797H24.877L24.4417 20.1006H21.6069V28.5715H18.1917V20.1006H15.3457V16.797H18.1917V14.3639C18.1917 12.98 18.5786 11.9067 19.3524 11.1441C20.1262 10.3814 21.1567 10.0001 22.4439 10.0001C23.5377 10.0001 24.3859 10.0447 24.9886 10.134Z" fill="black"/></g><defs><clipPath id="clip0_1_3107"><rect width="34.3" height="40" fill="white" transform="matrix(1 0 0 -1 2.83984 40)"/></clipPath><clipPath id="clip1_1_3107"><rect width="11.44" height="20" fill="white" transform="matrix(1 0 0 -1 14.2798 30)"/></clipPath></defs></svg>